<svg xmlns="http://www.w3.org/2000/svg" viewBox="0 0 48 48" fill="none">
  <rect width="48" height="48" rx="8" fill="#00B3E3"/>
  <path d="M24 12c-6.627 0-12 5.373-12 12s5.373 12 12 12 12-5.373 12-12-5.373-12-12-12zm0 2c5.523 0 10 4.477 10 10s-4.477 10-10 10-10-4.477-10-10 4.477-10 10-10z" fill="white" opacity="0.3"/>
  <path d="M15 22c0-1.1.9-2 2-2h2c1.1 0 2 .9 2 2v6c0 1.1-.9 2-2 2h-2c-1.1 0-2-.9-2-2v-6zm7-3c0-1.1.9-2 2-2h2c1.1 0 2 .9 2 2v9c0 1.1-.9 2-2 2h-2c-1.1 0-2-.9-2-2v-9zm7 1c0-1.1.9-2 2-2h2c1.1 0 2 .9 2 2v8c0 1.1-.9 2-2 2h-2c-1.1 0-2-.9-2-2v-8z" fill="white"/>
</svg>
